<svg width="119" height="31" viewBox="0 0 119 31" fill="none" xmlns="http://www.w3.org/2000/svg">
<g clip-path="url(#clip0_7_105)">
<path d="M10.08 27.288C8.544 27.288 7.09333 27.1067 5.728 26.744C4.384 26.36 3.22133 25.8053 2.24 25.08C1.89867 24.8453 1.696 24.568 1.632 24.248C1.568 23.928 1.6 23.6293 1.728 23.352C1.87733 23.0747 2.09067 22.8933 2.368 22.808C2.64533 22.7013 2.96533 22.7653 3.328 23C4.288 23.704 5.312 24.2053 6.4 24.504C7.488 24.8027 8.71467 24.952 10.08 24.952C12 24.952 13.4187 24.6 14.336 23.896C15.2747 23.1707 15.744 22.2213 15.744 21.048C15.744 20.1093 15.4027 19.3627 14.72 18.808C14.0587 18.2533 12.9387 17.816 11.36 17.496L8.032 16.824C6.02667 16.3973 4.52267 15.704 3.52 14.744C2.53867 13.7627 2.048 12.4613 2.048 10.84C2.048 9.496 2.38933 8.32267 3.072 7.32C3.776 6.31733 4.74667 5.53867 5.984 4.984C7.22133 4.42933 8.65067 4.152 10.272 4.152C11.616 4.152 12.864 4.344 14.016 4.728C15.1893 5.09067 16.2453 5.64533 17.184 6.392C17.4827 6.62667 17.6533 6.904 17.696 7.224C17.76 7.52267 17.7173 7.8 17.568 8.056C17.4187 8.312 17.2053 8.48267 16.928 8.568C16.6507 8.632 16.32 8.54667 15.936 8.312C15.0827 7.65067 14.1867 7.18133 13.248 6.904C12.3307 6.62667 11.328 6.488 10.24 6.488C8.55467 6.488 7.21067 6.88267 6.208 7.672C5.20533 8.44 4.704 9.464 4.704 10.744C4.704 11.768 5.01333 12.5787 5.632 13.176C6.272 13.7733 7.30667 14.2107 8.736 14.488L12.064 15.192C14.2187 15.64 15.808 16.3227 16.832 17.24C17.8773 18.136 18.4 19.3627 18.4 20.92C18.4 22.1787 18.0587 23.288 17.376 24.248C16.7147 25.208 15.7547 25.9547 14.496 26.488C13.2587 27.0213 11.7867 27.288 10.08 27.288ZM22.95 19.544C22.63 19.544 22.3633 19.448 22.15 19.256C21.9367 19.0427 21.83 18.7867 21.83 18.488C21.83 18.168 21.9367 17.912 22.15 17.72C22.3633 17.5067 22.63 17.4 22.95 17.4H30.15C30.4487 17.4 30.7047 17.5067 30.918 17.72C31.1313 17.912 31.238 18.168 31.238 18.488C31.238 18.7867 31.1313 19.0427 30.918 19.256C30.7047 19.448 30.4487 19.544 30.15 19.544H22.95Z" fill="#36E0F8"/>
<path d="M42.9445 27.224C42.0698 27.224 41.6325 26.7653 41.6325 25.848V6.712H34.4325C33.6218 6.712 33.2165 6.328 33.2165 5.56C33.2165 4.81333 33.6218 4.44 34.4325 4.44H51.4885C52.2992 4.44 52.7045 4.81333 52.7045 5.56C52.7045 6.328 52.2992 6.712 51.4885 6.712H44.2885V25.848C44.2885 26.7653 43.8405 27.224 42.9445 27.224ZM64.2425 27.288C61.2772 27.288 59.0265 26.5093 57.4905 24.952C55.9545 23.3733 55.1865 21.08 55.1865 18.072V5.56C55.1865 4.664 55.6238 4.216 56.4985 4.216C57.3732 4.216 57.8105 4.664 57.8105 5.56V17.944C57.8105 22.616 59.9545 24.952 64.2425 24.952C68.4878 24.952 70.6105 22.616 70.6105 17.944V5.56C70.6105 4.664 71.0585 4.216 71.9545 4.216C72.8078 4.216 73.2345 4.664 73.2345 5.56V18.072C73.2345 21.08 72.4665 23.3733 70.9305 24.952C69.4158 26.5093 67.1865 27.288 64.2425 27.288ZM80.0677 27C79.1078 27 78.6278 26.52 78.6278 25.56V5.88C78.6278 4.92 79.1078 4.44 80.0677 4.44H86.2438C89.8918 4.44 92.7078 5.41067 94.6918 7.352C96.6758 9.272 97.6678 12.056 97.6678 15.704C97.6678 19.352 96.6758 22.1467 94.6918 24.088C92.7078 26.0293 89.8918 27 86.2438 27H80.0677ZM81.2518 24.76H86.0518C91.9398 24.76 94.8838 21.7413 94.8838 15.704C94.8838 9.688 91.9398 6.68 86.0518 6.68H81.2518V24.76ZM107.724 27.224C106.849 27.224 106.411 26.7547 106.411 25.816V16.312L98.9555 6.072C98.6568 5.66667 98.5928 5.26133 98.7635 4.856C98.9555 4.42933 99.3182 4.216 99.8515 4.216C100.406 4.216 100.886 4.504 101.292 5.08L107.788 14.008L114.252 5.08C114.678 4.504 115.158 4.216 115.692 4.216C116.204 4.216 116.545 4.41867 116.716 4.824C116.886 5.208 116.812 5.63467 116.492 6.104L109.036 16.376V25.816C109.036 26.7547 108.598 27.224 107.724 27.224Z" fill="white"/>
</g>
<defs>
<clipPath id="clip0_7_105">
<rect width="119" height="31" fill="white"/>
</clipPath>
</defs>
</svg>
