<svg width="current" height="current" viewBox="0 0 32 32" fill="none" xmlns="http://www.w3.org/2000/svg">
<path d="M30.6494 28.8833L23.1943 21.4282C25.2259 18.9435 26.2248 15.773 25.9843 12.5725C25.7438 9.37192 24.2824 6.38625 21.9023 4.233C19.5222 2.07976 16.4056 0.923689 13.197 1.00391C9.98849 1.08414 6.93351 2.39452 4.66402 4.66402C2.39452 6.93351 1.08414 9.98849 1.00391 13.197C0.923689 16.4056 2.07976 19.5222 4.233 21.9023C6.38625 24.2824 9.37192 25.7438 12.5725 25.9843C15.773 26.2248 18.9435 25.2259 21.4282 23.1943L28.8833 30.6494C29.1189 30.8769 29.4344 31.0028 29.7619 31C30.0894 30.9971 30.4026 30.8658 30.6342 30.6342C30.8658 30.4026 30.9971 30.0894 31 29.7619C31.0028 29.4344 30.8769 29.1189 30.6494 28.8833ZM13.5297 23.5215C11.5535 23.5215 9.62171 22.9355 7.97857 21.8376C6.33543 20.7397 5.05476 19.1792 4.2985 17.3534C3.54225 15.5276 3.34438 13.5186 3.72991 11.5804C4.11545 9.6422 5.06708 7.86183 6.46445 6.46445C7.86183 5.06708 9.6422 4.11545 11.5804 3.72991C13.5186 3.34438 15.5276 3.54225 17.3534 4.2985C19.1792 5.05476 20.7397 6.33543 21.8376 7.97857C22.9355 9.62171 23.5215 11.5535 23.5215 13.5297C23.5185 16.1788 22.4649 18.7185 20.5917 20.5917C18.7185 22.4649 16.1788 23.5185 13.5297 23.5215Z" fill="#current"/>
</svg>
