<svg width="currnet" height="currnet" viewBox="0 0 28 28" fill="none" xmlns="http://www.w3.org/2000/svg">
<path d="M23.3027 5.3142L14.5346 0.147048C14.3711 0.0506111 14.1871 0 14 0C13.8129 0 13.6289 0.0506111 13.4654 0.147048L4.6973 5.3142C4.18294 5.61729 3.75435 6.06073 3.45592 6.59858C3.1575 7.13643 3.00008 7.74913 3 8.3732V22.1667C3.00175 23.7132 3.58177 25.1959 4.61284 26.2894C5.64391 27.383 7.04185 27.9981 8.5 28H19.5C20.9582 27.9981 22.3561 27.383 23.3872 26.2894C24.4182 25.1959 24.9983 23.7132 25 22.1667V8.3732C24.9999 7.74913 24.8425 7.13643 24.5441 6.59858C24.2456 6.06073 23.8171 5.61729 23.3027 5.3142V5.3142ZM22.8 22.1667C22.8 23.0949 22.4523 23.9852 21.8335 24.6415C21.2146 25.2979 20.3752 25.6667 19.5 25.6667H8.5C7.62479 25.6667 6.78542 25.2979 6.16655 24.6415C5.54768 23.9852 5.2 23.0949 5.2 22.1667V8.3732C5.19951 8.16451 5.25181 7.95949 5.35145 7.77953C5.45109 7.59957 5.59442 7.45125 5.7665 7.35004L14 2.50138L22.2346 7.35004C22.4065 7.4514 22.5496 7.59979 22.649 7.77974C22.7485 7.95969 22.8006 8.16462 22.8 8.3732V22.1667Z" fill="currnet"/>
<path d="M13.75 10.5C14.7165 10.5 15.5 9.7165 15.5 8.75C15.5 7.7835 14.7165 7 13.75 7C12.7835 7 12 7.7835 12 8.75C12 9.7165 12.7835 10.5 13.75 10.5Z" fill="currnet"/>
</svg>
